<?xml version="1.0" standalone="no"?>
<!DOCTYPE svg PUBLIC "-//W3C//DTD SVG 20010904//EN"
 "http://www.w3.org/TR/2001/REC-SVG-20010904/DTD/svg10.dtd">
<svg version="1.0" xmlns="http://www.w3.org/2000/svg"
 width="364.000000pt" height="364.000000pt" viewBox="0 0 364.000000 364.000000"
 preserveAspectRatio="xMidYMid meet">
<metadata>
Created by potrace 1.11, written by Peter Selinger 2001-2013
</metadata>
<g transform="translate(0.000000,364.000000) scale(0.100000,-0.100000)"
fill="#000000" stroke="none">
<path d="M310 3525 c0 -3 11 -23 25 -45 14 -22 25 -41 25 -44 0 -2 30 -55 66
-117 37 -63 93 -160 124 -215 l58 -102 -299 0 c-165 0 -301 -1 -303 -3 -2 -2
59 -112 136 -244 77 -132 151 -260 165 -285 14 -25 168 -292 343 -595 174
-302 325 -563 334 -580 9 -16 21 -37 26 -45 5 -8 37 -62 70 -120 33 -58 67
-116 75 -130 8 -14 125 -218 261 -453 136 -235 250 -424 255 -420 4 4 64 107
134 228 70 121 173 299 228 395 56 96 111 191 122 211 11 20 49 86 85 148 36
61 70 119 75 129 108 186 429 741 435 752 5 8 161 278 346 600 185 322 383
665 440 763 l102 177 -1664 0 c-915 0 -1664 -2 -1664 -5z m2800 -304 c0 -4 -4
-11 -9 -16 -5 -6 -22 -35 -39 -65 -16 -30 -128 -224 -247 -430 -120 -206 -225
-388 -235 -405 -9 -16 -42 -73 -72 -125 -30 -52 -66 -115 -80 -140 -14 -25
-70 -122 -125 -216 -55 -94 -103 -178 -107 -185 -4 -8 -12 -23 -19 -34 -12
-21 -354 -612 -372 -643 -114 -202 -140 -241 -149 -225 -5 10 -57 99 -114 198
-58 99 -118 205 -134 235 -17 30 -37 66 -46 80 -17 27 -317 545 -360 620 -14
25 -81 141 -149 258 -67 117 -134 232 -147 255 -13 23 -56 98 -95 165 -40 68
-75 130 -78 138 -5 12 15 14 122 12 l128 -3 303 -525 c167 -289 309 -534 316
-545 38 -65 136 -234 141 -246 21 -42 115 -194 121 -194 4 0 81 128 172 285
90 157 168 292 173 300 6 8 27 44 47 80 20 36 52 90 70 120 18 30 108 186 200
345 92 160 208 360 257 445 49 85 100 174 114 198 l24 42 -28 1 c-15 0 -412 0
-881 1 l-852 0 -42 71 c-22 40 -52 91 -65 114 l-24 42 1140 -1 c628 0 1141 -3
1141 -7z m-920 -527 c0 -6 -54 -104 -100 -182 -11 -18 -110 -189 -221 -380
-111 -191 -202 -348 -204 -350 -1 -2 -114 190 -251 425 -136 235 -256 443
-267 460 l-19 33 531 0 c292 0 531 -3 531 -6z"/>
</g>
</svg>
