<?xml version="1.0" encoding="utf-8"?>
<!-- Generator: Adobe Illustrator 15.0.0, SVG Export Plug-In . SVG Version: 6.00 Build 0)  -->
<!DOCTYPE svg PUBLIC "-//W3C//DTD SVG 1.1//EN" "http://www.w3.org/Graphics/SVG/1.1/DTD/svg11.dtd">
<svg version="1.1"  xmlns="http://www.w3.org/2000/svg" xmlns:xlink="http://www.w3.org/1999/xlink" x="0px" y="0px"
	 width="48px" height="48px" viewBox="0 0 48 48" enable-background="new 0 0 48 48" xml:space="preserve">
<g>
	<path fill="#1565C0" d="M16.931,23.55c0.896-2.955,3.378-6.879,8.446-6.879c3.525,0,5.713,1.65,6.893,2.958
		c0.652-0.193,1.457-0.348,2.361-0.348c0.02,0,0.039,0.004,0.059,0.004C34.729,19,34.063,12,26.018,12
		c-5.5,0-7.442,4.691-7.442,4.691s-3.99-2.965-8.088,1.133c-2.104,2.104-1.618,5.338-1.618,5.338s-4.853,0.486-4.853,5.663
		C4.018,33.515,9.032,34,9.032,34h2.86c-0.504-0.959-0.823-2.113-0.823-3.507C11.069,26.101,14.347,24.176,16.931,23.55z"/>
	<path fill="#1565C0" d="M40.438,36c0,0,3.563-0.486,3.563-4.212c0-3.725-3.887-4.533-3.887-4.533s0.594-3.401-2.537-5.183
		c-3.131-1.78-5.991,0-5.991,0s-1.674-3.401-6.208-3.401c-5.83,0-6.802,6.64-6.802,6.64s-5.505,0.325-5.505,5.183
		c0,4.859,5.02,5.507,5.02,5.507H40.438z"/>
</g>
</svg>
