<!-- Generator: Adobe Illustrator 19.1.0, SVG Export Plug-In  -->
<svg version="1.1"
	 xmlns="http://www.w3.org/2000/svg" xmlns:xlink="http://www.w3.org/1999/xlink" xmlns:a="http://ns.adobe.com/AdobeSVGViewerExtensions/3.0/"
	 x="0px" y="0px" width="100.9px" height="144.1px" viewBox="0 0 100.9 144.1"
	 style="overflow:scroll;enable-background:new 0 0 100.9 144.1;" xml:space="preserve">
<style type="text/css">
	.st0{fill:#FFFFFF;stroke:#77A6D4;stroke-width:2;stroke-miterlimit:10;}
	.st1{fill:none;stroke:#E30613;stroke-width:4;stroke-miterlimit:10;}
	.st2{fill:none;stroke:#77A6D4;stroke-width:3;stroke-miterlimit:10;}
</style>
<defs>
</defs>
<path class="st0" d="M50,1C34.3,20,23.3,63.4,23.3,63.4v23.3L1.1,102l7.3,34.7l11-8.4l10.4-1l9.6,15.3l4-4l7.4,0.6h-0.6l7.4-0.6l4,4
	l9.6-15.3l10.4,1l11,8.4l7.3-34.7L77.5,86.6V63.4c0,0-11-43.4-26.7-62.4H50z"/>
<circle class="st1" cx="50.4" cy="79.5" r="12.2"/>
<circle class="st1" cx="50.4" cy="107.3" r="7.9"/>
<line class="st2" x1="25" y1="95" x2="27.1" y2="117.7"/>
<line class="st2" x1="76.1" y1="95" x2="74" y2="117.7"/>
</svg>
